<svg id="visual" viewBox="0 0 1080 1920" width="1080" height="1920" xmlns="http://www.w3.org/2000/svg" xmlns:xlink="http://www.w3.org/1999/xlink" version="1.1"><rect x="0" y="0" width="1080" height="1920" fill="#001220"></rect><path d="M0 806L25.7 859C51.3 912 102.7 1018 154.2 1051.2C205.7 1084.3 257.3 1044.7 308.8 1036.8C360.3 1029 411.7 1053 463 1087.2C514.3 1121.3 565.7 1165.7 617 1147.3C668.3 1129 719.7 1048 771.2 1015.3C822.7 982.7 874.3 998.3 925.8 999.7C977.3 1001 1028.7 988 1054.3 981.5L1080 975L1080 0L1054.3 0C1028.7 0 977.3 0 925.8 0C874.3 0 822.7 0 771.2 0C719.7 0 668.3 0 617 0C565.7 0 514.3 0 463 0C411.7 0 360.3 0 308.8 0C257.3 0 205.7 0 154.2 0C102.7 0 51.3 0 25.7 0L0 0Z" fill="#c62368"></path><path d="M0 960L25.7 949.5C51.3 939 102.7 918 154.2 895.2C205.7 872.3 257.3 847.7 308.8 835.2C360.3 822.7 411.7 822.3 463 839.8C514.3 857.3 565.7 892.7 617 858.5C668.3 824.3 719.7 720.7 771.2 692.8C822.7 665 874.3 713 925.8 769.8C977.3 826.7 1028.7 892.3 1054.3 925.2L1080 958L1080 0L1054.3 0C1028.7 0 977.3 0 925.8 0C874.3 0 822.7 0 771.2 0C719.7 0 668.3 0 617 0C565.7 0 514.3 0 463 0C411.7 0 360.3 0 308.8 0C257.3 0 205.7 0 154.2 0C102.7 0 51.3 0 25.7 0L0 0Z" fill="#9f1b65"></path><path d="M0 487L25.7 528.2C51.3 569.3 102.7 651.7 154.2 673.8C205.7 696 257.3 658 308.8 654.2C360.3 650.3 411.7 680.7 463 657C514.3 633.3 565.7 555.7 617 513C668.3 470.3 719.7 462.7 771.2 474.8C822.7 487 874.3 519 925.8 535.8C977.3 552.7 1028.7 554.3 1054.3 555.2L1080 556L1080 0L1054.3 0C1028.7 0 977.3 0 925.8 0C874.3 0 822.7 0 771.2 0C719.7 0 668.3 0 617 0C565.7 0 514.3 0 463 0C411.7 0 360.3 0 308.8 0C257.3 0 205.7 0 154.2 0C102.7 0 51.3 0 25.7 0L0 0Z" fill="#77175d"></path><path d="M0 447L25.7 463.8C51.3 480.7 102.7 514.3 154.2 535.3C205.7 556.3 257.3 564.7 308.8 553.7C360.3 542.7 411.7 512.3 463 516.8C514.3 521.3 565.7 560.7 617 549C668.3 537.3 719.7 474.7 771.2 441.2C822.7 407.7 874.3 403.3 925.8 419.2C977.3 435 1028.7 471 1054.3 489L1080 507L1080 0L1054.3 0C1028.7 0 977.3 0 925.8 0C874.3 0 822.7 0 771.2 0C719.7 0 668.3 0 617 0C565.7 0 514.3 0 463 0C411.7 0 360.3 0 308.8 0C257.3 0 205.7 0 154.2 0C102.7 0 51.3 0 25.7 0L0 0Z" fill="#501450"></path><path d="M0 202L25.7 230.3C51.3 258.7 102.7 315.3 154.2 330C205.7 344.7 257.3 317.3 308.8 302.8C360.3 288.3 411.7 286.7 463 294.5C514.3 302.3 565.7 319.7 617 335.8C668.3 352 719.7 367 771.2 358.5C822.7 350 874.3 318 925.8 306.7C977.3 295.3 1028.7 304.7 1054.3 309.3L1080 314L1080 0L1054.3 0C1028.7 0 977.3 0 925.8 0C874.3 0 822.7 0 771.2 0C719.7 0 668.3 0 617 0C565.7 0 514.3 0 463 0C411.7 0 360.3 0 308.8 0C257.3 0 205.7 0 154.2 0C102.7 0 51.3 0 25.7 0L0 0Z" fill="#2d0e3e"></path></svg>