<svg id="visual" viewBox="0 0 1080 1920" width="1080" height="1920" xmlns="http://www.w3.org/2000/svg" xmlns:xlink="http://www.w3.org/1999/xlink" version="1.1"><rect x="0" y="0" width="1080" height="1920" fill="#001220"></rect><path d="M0 1213L25.7 1166.5C51.3 1120 102.7 1027 154.2 998C205.7 969 257.3 1004 308.8 1011C360.3 1018 411.7 997 463 967C514.3 937 565.7 898 617 914C668.3 930 719.7 1001 771.2 1029.7C822.7 1058.3 874.3 1044.7 925.8 1043.5C977.3 1042.3 1028.7 1053.7 1054.3 1059.3L1080 1065L1080 1921L1054.3 1921C1028.7 1921 977.3 1921 925.8 1921C874.3 1921 822.7 1921 771.2 1921C719.7 1921 668.3 1921 617 1921C565.7 1921 514.3 1921 463 1921C411.7 1921 360.3 1921 308.8 1921C257.3 1921 205.7 1921 154.2 1921C102.7 1921 51.3 1921 25.7 1921L0 1921Z" fill="#c62368"></path><path d="M0 1078L25.7 1087.2C51.3 1096.3 102.7 1114.7 154.2 1134.7C205.7 1154.7 257.3 1176.3 308.8 1187.3C360.3 1198.3 411.7 1198.7 463 1183.3C514.3 1168 565.7 1137 617 1166.8C668.3 1196.7 719.7 1287.3 771.2 1311.8C822.7 1336.3 874.3 1294.7 925.8 1245C977.3 1195.3 1028.7 1137.7 1054.3 1108.8L1080 1080L1080 1921L1054.3 1921C1028.7 1921 977.3 1921 925.8 1921C874.3 1921 822.7 1921 771.2 1921C719.7 1921 668.3 1921 617 1921C565.7 1921 514.3 1921 463 1921C411.7 1921 360.3 1921 308.8 1921C257.3 1921 205.7 1921 154.2 1921C102.7 1921 51.3 1921 25.7 1921L0 1921Z" fill="#9f1b65"></path><path d="M0 1492L25.7 1456C51.3 1420 102.7 1348 154.2 1328.5C205.7 1309 257.3 1342 308.8 1345.3C360.3 1348.7 411.7 1322.3 463 1343.2C514.3 1364 565.7 1432 617 1469.3C668.3 1506.7 719.7 1513.3 771.2 1502.7C822.7 1492 874.3 1464 925.8 1449.3C977.3 1434.7 1028.7 1433.3 1054.3 1432.7L1080 1432L1080 1921L1054.3 1921C1028.7 1921 977.3 1921 925.8 1921C874.3 1921 822.7 1921 771.2 1921C719.7 1921 668.3 1921 617 1921C565.7 1921 514.3 1921 463 1921C411.7 1921 360.3 1921 308.8 1921C257.3 1921 205.7 1921 154.2 1921C102.7 1921 51.3 1921 25.7 1921L0 1921Z" fill="#77175d"></path><path d="M0 1527L25.7 1512.2C51.3 1497.3 102.7 1467.7 154.2 1449.2C205.7 1430.7 257.3 1423.3 308.8 1433C360.3 1442.7 411.7 1469.3 463 1465.7C514.3 1462 565.7 1428 617 1438.3C668.3 1448.7 719.7 1503.3 771.2 1532.5C822.7 1561.7 874.3 1565.3 925.8 1551.5C977.3 1537.7 1028.7 1506.3 1054.3 1490.7L1080 1475L1080 1921L1054.3 1921C1028.7 1921 977.3 1921 925.8 1921C874.3 1921 822.7 1921 771.2 1921C719.7 1921 668.3 1921 617 1921C565.7 1921 514.3 1921 463 1921C411.7 1921 360.3 1921 308.8 1921C257.3 1921 205.7 1921 154.2 1921C102.7 1921 51.3 1921 25.7 1921L0 1921Z" fill="#501450"></path><path d="M0 1741L25.7 1716.3C51.3 1691.7 102.7 1642.3 154.2 1629.5C205.7 1616.7 257.3 1640.3 308.8 1653C360.3 1665.7 411.7 1667.3 463 1660.7C514.3 1654 565.7 1639 617 1624.8C668.3 1610.7 719.7 1597.3 771.2 1604.7C822.7 1612 874.3 1640 925.8 1650C977.3 1660 1028.7 1652 1054.3 1648L1080 1644L1080 1921L1054.3 1921C1028.7 1921 977.3 1921 925.8 1921C874.3 1921 822.7 1921 771.2 1921C719.7 1921 668.3 1921 617 1921C565.7 1921 514.3 1921 463 1921C411.7 1921 360.3 1921 308.8 1921C257.3 1921 205.7 1921 154.2 1921C102.7 1921 51.3 1921 25.7 1921L0 1921Z" fill="#2d0e3e"></path></svg>