<svg id="visual" viewBox="0 0 1080 1920" width="1080" height="1920" xmlns="http://www.w3.org/2000/svg" xmlns:xlink="http://www.w3.org/1999/xlink" version="1.1"><rect x="0" y="0" width="1080" height="1920" fill="#000000"></rect><path d="M0 1153L25.7 1099.7C51.3 1046.3 102.7 939.7 154.2 951.8C205.7 964 257.3 1095 308.8 1096.5C360.3 1098 411.7 970 463 908.3C514.3 846.7 565.7 851.3 617 878.2C668.3 905 719.7 954 771.2 984.3C822.7 1014.7 874.3 1026.3 925.8 1017.3C977.3 1008.3 1028.7 978.7 1054.3 963.8L1080 949L1080 1921L1054.3 1921C1028.7 1921 977.3 1921 925.8 1921C874.3 1921 822.7 1921 771.2 1921C719.7 1921 668.3 1921 617 1921C565.7 1921 514.3 1921 463 1921C411.7 1921 360.3 1921 308.8 1921C257.3 1921 205.7 1921 154.2 1921C102.7 1921 51.3 1921 25.7 1921L0 1921Z" fill="#f96982"></path><path d="M0 1019L25.7 1065C51.3 1111 102.7 1203 154.2 1208.5C205.7 1214 257.3 1133 308.8 1111.2C360.3 1089.3 411.7 1126.7 463 1168.7C514.3 1210.7 565.7 1257.3 617 1277.2C668.3 1297 719.7 1290 771.2 1281.7C822.7 1273.3 874.3 1263.7 925.8 1241.3C977.3 1219 1028.7 1184 1054.3 1166.5L1080 1149L1080 1921L1054.3 1921C1028.7 1921 977.3 1921 925.8 1921C874.3 1921 822.7 1921 771.2 1921C719.7 1921 668.3 1921 617 1921C565.7 1921 514.3 1921 463 1921C411.7 1921 360.3 1921 308.8 1921C257.3 1921 205.7 1921 154.2 1921C102.7 1921 51.3 1921 25.7 1921L0 1921Z" fill="#ce5470"></path><path d="M0 1458L25.7 1449C51.3 1440 102.7 1422 154.2 1422.7C205.7 1423.3 257.3 1442.7 308.8 1462.7C360.3 1482.7 411.7 1503.3 463 1506.5C514.3 1509.7 565.7 1495.3 617 1470.3C668.3 1445.3 719.7 1409.7 771.2 1417.2C822.7 1424.7 874.3 1475.3 925.8 1475.5C977.3 1475.7 1028.7 1425.3 1054.3 1400.2L1080 1375L1080 1921L1054.3 1921C1028.7 1921 977.3 1921 925.8 1921C874.3 1921 822.7 1921 771.2 1921C719.7 1921 668.3 1921 617 1921C565.7 1921 514.3 1921 463 1921C411.7 1921 360.3 1921 308.8 1921C257.3 1921 205.7 1921 154.2 1921C102.7 1921 51.3 1921 25.7 1921L0 1921Z" fill="#a4405d"></path><path d="M0 1656L25.7 1652.2C51.3 1648.3 102.7 1640.7 154.2 1623.3C205.7 1606 257.3 1579 308.8 1568.8C360.3 1558.7 411.7 1565.3 463 1558.2C514.3 1551 565.7 1530 617 1519.5C668.3 1509 719.7 1509 771.2 1491.8C822.7 1474.7 874.3 1440.3 925.8 1437.7C977.3 1435 1028.7 1464 1054.3 1478.5L1080 1493L1080 1921L1054.3 1921C1028.7 1921 977.3 1921 925.8 1921C874.3 1921 822.7 1921 771.2 1921C719.7 1921 668.3 1921 617 1921C565.7 1921 514.3 1921 463 1921C411.7 1921 360.3 1921 308.8 1921C257.3 1921 205.7 1921 154.2 1921C102.7 1921 51.3 1921 25.7 1921L0 1921Z" fill="#7c2d49"></path><path d="M0 1722L25.7 1705.3C51.3 1688.7 102.7 1655.3 154.2 1639.2C205.7 1623 257.3 1624 308.8 1641.8C360.3 1659.7 411.7 1694.3 463 1722.3C514.3 1750.3 565.7 1771.7 617 1760.5C668.3 1749.3 719.7 1705.7 771.2 1689C822.7 1672.3 874.3 1682.7 925.8 1689.5C977.3 1696.3 1028.7 1699.7 1054.3 1701.3L1080 1703L1080 1921L1054.3 1921C1028.7 1921 977.3 1921 925.8 1921C874.3 1921 822.7 1921 771.2 1921C719.7 1921 668.3 1921 617 1921C565.7 1921 514.3 1921 463 1921C411.7 1921 360.3 1921 308.8 1921C257.3 1921 205.7 1921 154.2 1921C102.7 1921 51.3 1921 25.7 1921L0 1921Z" fill="#571c34"></path></svg>